<svg id="Layer_1" enable-background="new 0 0 511.997 511.997" height="512" viewBox="0 0 511.997 511.997" width="512" xmlns="http://www.w3.org/2000/svg"><g><g><g><g><path d="m188.272 406.169h137.49v98.262h-137.49z" fill="#de9964"/><path d="m275.762 406.169h50v98.262h-50z" fill="#d68d56"/><g><path d="m256.499 479.856c105.341 0 186.91-20.938 232.689-36.354 17.419-5.866 20.817-28.986 5.82-39.601-185.604-131.372-238.509-300.705-238.509-300.705s-51.87 163.027-239.84 300.609c-14.675 10.741-11.067 33.526 6.164 39.363 45.588 15.446 127.573 36.688 233.676 36.688z" fill="#47b36b"/></g><path d="m495.007 403.902c-185.603-131.373-238.508-300.706-238.508-300.706s-7.038 22.116-25.317 56.927c31.145 60.902 95.532 160.048 213.826 243.778 14.997 10.615 11.599 33.735-5.82 39.601-42.086 14.172-114.438 32.998-207.683 35.946 8.179.258 16.5.408 24.994.408 105.341 0 186.909-20.938 232.689-36.354 17.418-5.865 20.816-28.985 5.819-39.6z" fill="#3ea862"/></g><ellipse cx="425.088" cy="349.06" fill="#ff595f" rx="28.157" ry="28.186"/><path d="m425.088 320.875c-5.516 0-10.656 1.594-15 4.337 7.903 4.991 13.157 13.803 13.157 23.849 0 10.045-5.254 18.857-13.157 23.849 4.344 2.743 9.484 4.337 15 4.337 15.551 0 28.157-12.619 28.157-28.186s-12.606-28.186-28.157-28.186z" fill="#ff4249"/><ellipse cx="257.017" cy="418.298" fill="#f7ce34" rx="28.157" ry="28.186"/><path d="m257.017 390.113c-5.515 0-10.656 1.594-15 4.337 7.903 4.991 13.157 13.803 13.157 23.849s-5.254 18.857-13.157 23.849c4.344 2.743 9.484 4.337 15 4.337 15.551 0 28.157-12.619 28.157-28.186s-12.607-28.186-28.157-28.186z" fill="#f5c100"/><ellipse cx="84.388" cy="349.06" fill="#ff595f" rx="28.157" ry="28.186"/><path d="m84.388 320.875c-5.516 0-10.656 1.594-15 4.337 7.903 4.991 13.157 13.803 13.157 23.849 0 10.045-5.254 18.857-13.157 23.849 4.344 2.743 9.484 4.337 15 4.337 15.551 0 28.157-12.619 28.157-28.186s-12.606-28.186-28.157-28.186z" fill="#ff4249"/></g><g><path d="m256.587 311.559c72.705 0 128.612-14.798 159.026-25.248 10.806-3.713 12.893-18.15 3.535-24.712-126.56-88.75-162.562-204.002-162.562-204.002s-35.26 110.846-163.282 203.852c-9.204 6.687-7.11 20.935 3.64 24.649 30.272 10.461 86.444 25.461 159.643 25.461z" fill="#47b36b"/></g><path d="m419.148 261.599c-126.559-88.749-162.561-204.001-162.561-204.001s-6.816 21.415-25.319 53.313c23.476 41.522 66.114 100.362 137.881 150.689 9.358 6.562 7.271 20.999-3.535 24.712-26.826 9.217-73.494 21.811-134.019 24.655 8.091.38 16.42.593 24.993.593 72.705 0 128.612-14.799 159.026-25.248 10.805-3.713 12.892-18.151 3.534-24.713z" fill="#3ea862"/><path d="m262.419 12.112 9.866 30.633c.65 2.018 2.209 3.613 4.21 4.308l20.185 7.01c6.047 2.1 6.047 10.661 0 12.761l-20.185 7.01c-2.001.695-3.56 2.29-4.21 4.308l-9.866 30.633c-2.01 6.242-10.832 6.242-12.842 0l-9.866-30.633c-.65-2.018-2.209-3.613-4.21-4.308l-20.185-7.01c-6.047-2.1-6.047-10.661 0-12.761l20.185-7.01c2.001-.695 3.56-2.29 4.21-4.308l9.866-30.633c2.009-6.242 10.831-6.242 12.842 0z" fill="#f7ce34"/><g><path d="m296.68 54.063-20.185-7.01c-2.001-.695-3.56-2.29-4.21-4.308l-9.866-30.634c-1.005-3.121-3.713-4.681-6.421-4.681v106.026c2.708 0 5.416-1.561 6.421-4.681l9.866-30.633c.65-2.018 2.209-3.613 4.21-4.308l20.185-7.01c6.047-2.1 6.047-10.661 0-12.761z" fill="#f5c100"/></g></g><g><path d="m499.34 397.78c-14.546-10.296-28.807-21.229-42.48-32.552 2.478-4.858 3.886-10.35 3.886-16.168 0-19.677-15.996-35.686-35.657-35.686-6.943 0-13.423 2.003-18.909 5.452-5.466-5.526-10.863-11.165-16.146-16.881 10.514-2.829 19.887-5.749 28.016-8.541 16.283-5.594 19.526-28.043 5.405-37.946-83.775-58.748-127.209-129.542-146.221-168.221l2.075-6.443 19.832-6.886c12.312-4.276 12.502-22.59-.001-26.931l-19.831-6.886-9.752-30.279c-4.185-12.994-22.935-12.995-27.12 0l-9.752 30.279-19.831 6.886c-12.313 4.276-12.503 22.589 0 26.931l19.832 6.886 2.396 7.439c-14.094 27.711-39.355 68.677-81.219 111.282-6.788 6.908 3.89 17.444 10.699 10.513 37.03-37.686 61.499-74.192 76.922-101.918 4.044 16.607 25.841 16.19 29.266-.739 22.493 41.604 66.608 106.031 144.092 160.367 4.343 3.045 3.241 9.793-1.665 11.478-27.003 9.277-83.253 24.841-156.589 24.841-73.696 0-130.119-15.694-157.193-25.049-4.995-1.725-5.939-8.4-1.681-11.493 13.772-10.006 27.138-20.706 39.726-31.803 7.274-6.412-2.646-17.666-9.919-11.252-12.236 10.787-25.231 21.189-38.623 30.919-13.837 10.051-10.585 32.214 5.598 37.806 7.715 2.666 16.547 5.446 26.412 8.155-5.595 6.018-11.319 11.967-17.115 17.801-5.589-3.643-12.251-5.77-19.403-5.77-19.662 0-35.657 16.009-35.657 35.686 0 6.069 1.526 11.787 4.207 16.796-13.119 10.995-26.786 21.706-40.709 31.897-9.027 6.607-13.578 17.58-11.877 28.636 1.709 11.118 9.398 20.269 20.064 23.883 37.141 12.583 91.752 26.957 160.355 33.5v20.658c0 4.142 3.358 7.5 7.5 7.5s7.5-3.358 7.5-7.5v-19.378c19.249 1.463 39.503 2.304 60.727 2.304 20.632 0 41.275-.811 61.764-2.407v19.481c0 4.142 3.357 7.5 7.5 7.5s7.5-3.358 7.5-7.5v-20.792c12.321-1.198 24.572-2.677 36.712-4.447 9.597-1.399 7.429-16.241-2.164-14.843-36.446 5.314-73.897 8.008-111.312 8.008-67.294 0-134.859-8.393-199.708-26.554 14.395-2.472 32.384-6.588 52.286-13.451 42.547-14.674 101.66-45.105 146.922-107.284 45.263 62.178 104.374 92.61 146.922 107.284 20.16 6.953 38.353 11.083 52.84 13.545-14.804 4.121-30.101 7.827-45.778 11.054-9.362 1.928-6.044 16.56 3.023 14.692 27.517-5.664 53.954-12.739 78.576-21.031 10.751-3.621 18.45-12.835 20.095-24.048 1.64-11.203-3.087-22.232-12.338-28.78zm-243.343-293.533-9.148-28.405c-1.364-4.236-4.688-7.635-8.889-9.094l-18.157-6.305 18.158-6.305c4.202-1.459 7.524-4.859 8.888-9.094l9.148-28.405 9.148 28.406c1.365 4.234 4.687 7.633 8.889 9.093l18.157 6.305-18.157 6.305c-4.2 1.458-7.523 4.857-8.889 9.094zm189.748 244.813c0 11.406-9.267 20.686-20.657 20.686s-20.657-9.279-20.657-20.686 9.267-20.686 20.657-20.686 20.657 9.28 20.657 20.686zm-361.357-20.686c11.391 0 20.657 9.28 20.657 20.686s-9.267 20.686-20.657 20.686-20.657-9.279-20.657-20.686 9.266-20.686 20.657-20.686zm94.671 51.765c-22.38 15.767-47.396 28.502-74.353 37.851-46.105 15.99-82.373 16.523-82.728 16.527-.003 0-.005 0-.008 0-3.647-2.279-6.112-5.978-6.793-10.408-.859-5.586 1.351-10.914 5.911-14.251 14.208-10.4 28.155-21.332 41.543-32.554 6.025 4.66 13.571 7.442 21.757 7.442 19.662 0 35.657-16.008 35.657-35.686 0-7.1-2.091-13.716-5.676-19.281 7.857-7.906 15.577-16.027 23.039-24.23 28.405 6.691 63.615 12.218 104.521 13.308-17.68 23.727-38.773 44.305-62.87 61.282zm153.877 0c-24.086-16.969-45.17-37.535-62.845-61.247 40.333-.99 75.15-6.313 103.401-12.821 7.11 7.875 14.457 15.651 21.933 23.213-3.783 5.665-5.994 12.466-5.994 19.776 0 19.677 15.996 35.686 35.657 35.686 8.438 0 16.197-2.955 22.31-7.877 13.931 11.532 28.46 22.667 43.276 33.154 4.688 3.319 6.991 8.688 6.159 14.364-.271 1.85-3.496 10.162-6.811 10.13-.361-.004-36.629-.537-82.734-16.527-26.957-9.349-51.972-22.084-74.352-37.851z"/><path d="m225.593 208.948v-14.988c0-4.142-3.358-7.5-7.5-7.5s-7.5 3.358-7.5 7.5v14.988c0 4.142 3.358 7.5 7.5 7.5s7.5-3.358 7.5-7.5z"/><path d="m301.402 208.948v-14.988c0-4.142-3.357-7.5-7.5-7.5s-7.5 3.358-7.5 7.5v14.988c0 4.142 3.357 7.5 7.5 7.5s7.5-3.358 7.5-7.5z"/><path d="m280.13 261.128c2.928-2.931 2.926-7.679-.005-10.607-2.932-2.928-7.681-2.924-10.606.005-3.616 3.62-8.418 5.613-13.521 5.614-5.103 0-9.905-1.994-13.521-5.614-2.928-2.93-7.676-2.933-10.607-.005-2.93 2.928-2.933 7.676-.005 10.607 6.45 6.457 15.021 10.012 24.134 10.012 9.112 0 17.682-3.556 24.131-10.012z"/><path d="m257.017 382.613c-19.662 0-35.658 16.008-35.658 35.686s15.996 35.686 35.658 35.686c19.661 0 35.657-16.009 35.657-35.686s-15.996-35.686-35.657-35.686zm0 56.371c-11.391 0-20.658-9.28-20.658-20.686s9.267-20.686 20.658-20.686 20.657 9.279 20.657 20.686-9.266 20.686-20.657 20.686z"/></g></g></svg>