<svg aria-hidden="true" focusable="false" data-prefix="fad" data-icon="code-merge" class="svg-inline--fa fa-code-merge fa-w-12" role="img" xmlns="http://www.w3.org/2000/svg" viewBox="0 0 384 512"><g class="fa-group"><path class="fa-secondary" fill="currentColor" d="M227.06 293.9A199.9 199.9 0 0 1 104 225.83v129.84a80.31 80.31 0 0 0-48 0V156.33a80.24 80.24 0 0 0 58.73-4.24 152.51 152.51 0 0 0 113.78 93.41 80 80 0 0 0-1.45 48.4z" opacity="0.4"></path><path class="fa-primary" fill="currentColor" d="M80 0a80 80 0 1 0 80 80A80 80 0 0 0 80 0zm0 96a16 16 0 1 1 16-16 16 16 0 0 1-16 16zm0 256a80 80 0 1 0 80 80 80 80 0 0 0-80-80zm0 96a16 16 0 1 1 16-16 16 16 0 0 1-16 16zm224-256a80 80 0 1 0 80 80 80 80 0 0 0-80-80zm0 96a16 16 0 1 1 16-16 16 16 0 0 1-16 16z"></path></g></svg>